<?xml version="1.0" encoding="UTF-8"?>
<svg xmlns="http://www.w3.org/2000/svg" xmlns:xlink="http://www.w3.org/1999/xlink" width="309px" height="305px" viewBox="0 0 309 305" version="1.1">
<defs>
<clipPath id="clip1">
  <path d="M 76.558594 91.5 L 232.4375 91.5 L 232.4375 213.5 L 76.558594 213.5 Z M 76.558594 91.5 "/>
</clipPath>
</defs>
<g id="surface1">
<path style=" stroke:none;fill-rule:nonzero;fill:rgb(92.941176%,9.019608%,1.176471%);fill-opacity:1;" d="M 284.554688 94.996094 C 276.082031 85.929688 260.046875 81.269531 243.03125 76.351562 C 235.734375 74.234375 228.203125 72.03125 220.835938 69.375 C 213.40625 66.6875 206.105469 63.226562 199.003906 59.910156 C 184.5625 53.101562 169.636719 46.070312 154.480469 46.070312 C 139.359375 46.070312 124.433594 53.101562 109.996094 59.910156 C 102.890625 63.253906 95.558594 66.714844 88.125 69.402344 C 80.792969 72.0625 73.230469 74.234375 65.929688 76.378906 C 48.917969 81.328125 32.882812 85.988281 24.410156 95.023438 C 13.101562 107.121094 13.359375 125.046875 13.621094 144.007812 C 13.652344 146.867188 13.6875 149.699219 13.6875 152.5 C 13.6875 155.300781 13.652344 158.132812 13.589844 160.992188 C 13.328125 179.980469 13.066406 197.878906 24.375 210.003906 C 32.851562 219.042969 48.886719 223.703125 65.867188 228.648438 C 73.164062 230.765625 80.695312 232.96875 88.09375 235.625 C 95.523438 238.3125 102.824219 241.746094 109.894531 245.089844 C 124.367188 251.925781 139.292969 258.960938 154.417969 258.960938 C 169.570312 258.960938 184.5 251.925781 198.9375 245.121094 C 206.042969 241.773438 213.339844 238.3125 220.773438 235.65625 C 228.105469 232.996094 235.601562 230.824219 242.871094 228.707031 C 259.980469 223.730469 276.015625 219.070312 284.488281 210.035156 C 295.800781 197.9375 295.539062 180.007812 295.277344 161.050781 C 295.242188 158.160156 295.179688 155.332031 295.179688 152.527344 C 295.179688 149.726562 295.210938 146.894531 295.277344 144.0625 C 295.636719 125.019531 295.894531 107.089844 284.554688 94.996094 Z M 295.050781 87.445312 C 279.863281 71.203125 250.824219 67.34375 226.019531 58.363281 C 203.824219 50.359375 181.238281 34.144531 154.515625 34.144531 C 127.789062 34.144531 105.203125 50.359375 83.007812 58.363281 C 58.171875 67.34375 29.167969 71.203125 13.980469 87.445312 C -2.511719 105.0625 0.160156 129.910156 0.160156 152.5 C 0.160156 175.0625 -2.511719 199.9375 13.945312 217.554688 C 29.132812 233.796875 58.171875 237.65625 82.976562 246.636719 C 105.171875 254.671875 127.757812 270.855469 154.480469 270.855469 C 181.207031 270.855469 203.792969 254.671875 225.988281 246.636719 C 250.824219 237.65625 279.828125 233.796875 295.015625 217.554688 C 311.476562 199.9375 308.800781 175.089844 308.800781 152.5 C 308.867188 129.910156 311.539062 105.0625 295.050781 87.445312 Z M 299.21875 160.90625 C 299.515625 180.582031 299.773438 199.082031 287.554688 212.148438 C 278.363281 221.957031 261.804688 226.789062 244.273438 231.878906 C 236.972656 233.996094 229.507812 236.171875 222.335938 238.773438 C 215.101562 241.375 207.898438 244.777344 200.925781 248.066406 C 186 255.097656 170.648438 262.332031 154.515625 262.332031 C 138.382812 262.332031 123.03125 255.097656 108.167969 248.09375 C 101.164062 244.777344 93.925781 241.375 86.691406 238.773438 C 79.421875 236.140625 71.960938 233.96875 64.726562 231.878906 C 47.160156 226.789062 30.601562 221.957031 21.441406 212.148438 C 9.253906 199.109375 9.515625 180.582031 9.773438 160.964844 C 9.808594 158.105469 9.871094 155.300781 9.871094 152.5 C 9.871094 149.699219 9.839844 146.894531 9.808594 144.035156 C 9.515625 124.417969 9.253906 105.890625 21.476562 92.851562 C 30.667969 83.042969 47.222656 78.238281 64.757812 73.121094 C 72.023438 71.003906 79.488281 68.828125 86.722656 66.226562 C 93.960938 63.597656 101.195312 60.195312 108.203125 56.90625 C 123.0625 49.902344 138.445312 42.636719 154.546875 42.636719 C 170.648438 42.636719 186.03125 49.871094 200.890625 56.878906 C 207.898438 60.195312 215.136719 63.597656 222.371094 66.199219 C 229.605469 68.828125 237.101562 70.976562 244.304688 73.089844 C 261.839844 78.179688 278.425781 83.011719 287.585938 92.820312 C 299.808594 105.890625 299.546875 124.390625 299.253906 144.007812 C 299.21875 146.894531 299.15625 149.699219 299.15625 152.472656 C 299.15625 155.273438 299.1875 158.074219 299.21875 160.90625 Z M 299.21875 160.90625 "/>
<g clip-path="url(#clip1)" clip-rule="nonzero">
<path style=" stroke:none;fill-rule:nonzero;fill:rgb(36.862745%,9.803922%,7.843137%);fill-opacity:1;" d="M 227.863281 180.8125 C 229.28125 180.8125 230.402344 181.386719 231.230469 182.535156 C 232.039062 183.679688 232.441406 185.257812 232.441406 187.265625 C 232.441406 190.992188 231.40625 193.957031 229.335938 196.152344 C 224.105469 201.695312 218.824219 205.96875 213.484375 208.96875 C 208.148438 211.988281 201.832031 213.5 194.53125 213.5 C 187.453125 213.5 181.4375 211.828125 176.492188 208.480469 C 171.527344 205.136719 166.808594 199.402344 162.34375 191.277344 C 158.75 184.78125 155.917969 179.972656 153.847656 176.855469 C 151.777344 173.761719 149.738281 171.542969 147.734375 170.203125 C 145.710938 168.867188 143.226562 168.054688 140.285156 167.769531 C 139.847656 169.773438 138.597656 176.082031 136.527344 186.691406 C 135.65625 191.46875 135.109375 194.386719 134.894531 195.4375 C 133.804688 201.265625 131.625 205.730469 128.355469 208.828125 C 125.089844 211.941406 120.132812 213.5 113.488281 213.5 C 106.191406 213.5 99.742188 211.609375 94.140625 207.824219 C 88.519531 204.058594 84.1875 198.800781 81.136719 192.054688 C 78.085938 185.324219 76.558594 177.660156 76.558594 169.058594 C 76.558594 153 79.753906 139.144531 86.136719 127.484375 C 92.496094 115.824219 101.429688 106.90625 112.933594 100.734375 C 124.414062 94.578125 137.671875 91.5 152.703125 91.5 C 163.160156 91.5 171.929688 92.886719 179.007812 95.65625 C 186.089844 98.429688 191.351562 102.253906 194.792969 107.125 C 198.214844 112 199.925781 117.496094 199.925781 123.613281 C 199.925781 128.964844 198.488281 134.191406 195.609375 139.296875 C 192.714844 144.417969 188.378906 148.941406 182.605469 152.859375 C 176.832031 156.777344 169.804688 159.691406 161.527344 161.601562 C 166.753906 162.847656 170.785156 164.851562 173.617188 167.625 C 176.449219 170.394531 179.28125 174.457031 182.113281 179.808594 C 185.164062 185.542969 188.191406 189.75 191.199219 192.425781 C 194.183594 195.101562 197.636719 196.441406 201.558594 196.441406 C 205.042969 196.441406 208.367188 195.40625 211.527344 193.34375 C 214.683594 191.296875 218.660156 187.789062 223.453125 182.820312 C 224.761719 181.484375 226.230469 180.8125 227.863281 180.8125 Z M 113.324219 189.128906 L 117.734375 167.625 C 114.03125 167.625 111.503906 166.859375 110.15625 165.332031 C 108.78125 163.800781 108.097656 162.082031 108.097656 160.167969 C 108.097656 157.875 108.945312 156.058594 110.644531 154.722656 C 112.324219 153.382812 114.25 152.714844 116.429688 152.714844 L 120.515625 152.714844 C 122.257812 143.347656 123.890625 135.273438 125.414062 128.488281 C 126.832031 122.273438 131.40625 119.167969 139.140625 119.167969 C 145.351562 119.167969 148.453125 121.605469 148.453125 126.480469 C 148.453125 127.53125 148.398438 128.34375 148.292969 128.917969 L 143.390625 152.714844 C 149.273438 152.429688 154.640625 151.1875 159.5 148.988281 C 164.335938 146.789062 168.203125 143.730469 171.101562 139.8125 C 173.976562 135.894531 175.414062 131.449219 175.414062 126.480469 C 175.414062 120.457031 173.074219 115.726562 168.390625 112.289062 C 163.703125 108.847656 156.84375 107.125 147.800781 107.125 C 137.125 107.125 127.789062 109.4375 119.796875 114.066406 C 111.777344 118.710938 105.535156 125.589844 101.070312 134.707031 C 96.605469 143.847656 94.371094 154.960938 94.371094 168.054688 C 94.371094 174.171875 95.078125 179.429688 96.496094 183.824219 C 97.910156 188.222656 99.652344 191.519531 101.722656 193.714844 C 103.792969 195.914062 105.753906 197.011719 107.605469 197.011719 C 109.023438 197.011719 110.199219 196.390625 111.136719 195.148438 C 112.050781 193.90625 112.78125 191.898438 113.324219 189.128906 Z M 113.324219 189.128906 "/>
</g>
</g>
</svg>
